<svg width="20" height="20" viewBox="0 0 20 20" fill="none" xmlns="http://www.w3.org/2000/svg">
<path d="M7.11763 6.82359H6.41176C6.03734 6.82359 5.67825 6.97233 5.41349 7.23709C5.14874 7.50184 5 7.86093 5 8.23535V14.5883C5 14.9627 5.14874 15.3218 5.41349 15.5865C5.67825 15.8513 6.03734 16 6.41176 16H12.7647C13.1391 16 13.4982 15.8513 13.7629 15.5865C14.0277 15.3218 14.1764 14.9627 14.1764 14.5883V13.8824" stroke="#72C584" stroke-width="1.2" stroke-linecap="round" stroke-linejoin="round"/>
<path d="M13.4705 5.41183L15.5882 7.52947M16.5658 6.53065C16.8438 6.25264 17 5.87558 17 5.48242C17 5.08926 16.8438 4.7122 16.5658 4.43419C16.2878 4.15618 15.9107 4 15.5176 4C15.1244 4 14.7474 4.15618 14.4694 4.43419L8.52939 10.353V12.4706H10.647L16.5658 6.53065Z" stroke="#72C584" stroke-width="1.2" stroke-linecap="round" stroke-linejoin="round"/>
</svg>
