<svg width="20" height="20" viewBox="0 0 20 20" fill="none" xmlns="http://www.w3.org/2000/svg">
<path d="M15.3967 10.0017C15.2376 10.0017 15.085 10.0649 14.9726 10.1774C14.8601 10.2899 14.7969 10.4425 14.7969 10.6016V14.2005C14.7969 14.3596 14.7337 14.5122 14.6212 14.6247C14.5087 14.7372 14.3561 14.8003 14.197 14.8003H5.79948C5.64039 14.8003 5.48783 14.7372 5.37534 14.6247C5.26285 14.5122 5.19965 14.3596 5.19965 14.2005V5.80296C5.19965 5.64387 5.26285 5.4913 5.37534 5.37882C5.48783 5.26633 5.64039 5.20313 5.79948 5.20313H9.39843C9.55752 5.20313 9.71009 5.13993 9.82258 5.02745C9.93507 4.91496 9.99826 4.76239 9.99826 4.6033C9.99826 4.44422 9.93507 4.29165 9.82258 4.17916C9.71009 4.06667 9.55752 4.00348 9.39843 4.00348H5.79948C5.32223 4.00348 4.86452 4.19307 4.52706 4.53053C4.18959 4.868 4 5.3257 4 5.80296V14.2005C4 14.6778 4.18959 15.1355 4.52706 15.4729C4.86452 15.8104 5.32223 16 5.79948 16H14.197C14.6743 16 15.132 15.8104 15.4695 15.4729C15.8069 15.1355 15.9965 14.6778 15.9965 14.2005V10.6016C15.9965 10.4425 15.9333 10.2899 15.8208 10.1774C15.7083 10.0649 15.5558 10.0017 15.3967 10.0017ZM6.3993 10.4576V13.0009C6.3993 13.16 6.4625 13.3125 6.57499 13.425C6.68748 13.5375 6.84005 13.6007 6.99913 13.6007H9.54239C9.62133 13.6012 9.69959 13.586 9.77267 13.5562C9.84575 13.5263 9.91222 13.4823 9.96827 13.4267L14.1191 9.26995L15.8226 7.60243C15.8788 7.54667 15.9234 7.48033 15.9539 7.40724C15.9843 7.33414 16 7.25574 16 7.17656C16 7.09737 15.9843 7.01897 15.9539 6.94588C15.9234 6.87278 15.8788 6.80644 15.8226 6.75068L13.2793 4.17743C13.2235 4.12121 13.1572 4.07658 13.0841 4.04613C13.011 4.01568 12.9326 4 12.8534 4C12.7742 4 12.6958 4.01568 12.6228 4.04613C12.5497 4.07658 12.4833 4.12121 12.4276 4.17743L10.736 5.87494L6.57325 10.0317C6.51766 10.0878 6.47368 10.1542 6.44383 10.2273C6.41398 10.3004 6.39885 10.3787 6.3993 10.4576ZM12.8534 5.44906L14.5509 7.14657L13.6992 7.99832L12.0017 6.30081L12.8534 5.44906ZM7.59896 10.7035L11.1559 7.14657L12.8534 8.84407L9.29646 12.401H7.59896V10.7035Z" fill="#72C584"/>
</svg>
